{"title":"Ouija [2014] (No Cinavia) 1080p","uid":11782336,"size":3083037703,"categoryP":"video","categoryS":"hd___movies","magnet":"?xt=urn:btih:5177cb90ed54aed50e467d808510e8c9ef5273ae&amp;dn=Ouija+%5B2014%5D+%28No+Cinavia%29+1080p&amp;tr=udp%3A%2F%2Ftracker.openbittorrent.com%3A80&amp;tr=udp%3A%2F%2Fopen.demonii.com%3A1337&amp;tr=udp%3A%2F%2Ftracker.coppersurfer.tk%3A6969&amp;tr=udp%3A%2F%2Fexodus.desync.com%3A6969","seeders":5,"leechers":0,"uploader":"AlienMethod","files":7,"time":1427649438,"description":"x264/MP4\nCinavia Removed/CinExHD\n6-Channel AC3@640kbps (audio 1)\n2-Channel AAC@192kbps (audio 2)\nEnglish Subs Incl.\n\n\n&quot;A group of friends must confront their most terrifying fears when they\nawaken the dark powers of an ancient spirit board.&quot;\n\n\nGeneral\nComplete name : F:TorrentsOuija [2014] (NoCinavia) 1080p\nOuija [2014] (NoCinavia) 1080p.mp4\nFormat : MPEG-4\nFormat profile : Base Media\nCodec ID : isom\nFile size : 2.87 GiB\nDuration : 1h 29mn\nOverall bit rate mode : Variable\nOverall bit rate : 4 593 Kbps\nEncoded date : UTC 2015-03-29 14:13:59\nTagged date : UTC 2015-03-29 14:13:59\nWriting application : My MP4Box GUI 0.6.0.6 \n\nVideo\nID : 1\nFormat : AVC\nFormat/Info : Advanced Video Codec\nFormat profile : &lt;a class=&quot;__cf_email__&quot; href=&quot;/cdn-cgi/l/email-protection&quot; data-cfemail=&quot;efa7868887afa3dbc1de&quot;&gt;[email&amp;#160;protected]&lt;/a&gt;&lt;script cf-hash='f9e31' type=&quot;text/javascript&quot;&gt;\n/* &lt;![CDATA[ */!function(){try{var t=&quot;currentScript&quot;in document?document.currentScript:function(){for(var t=document.getElementsByTagName(&quot;script&quot;),e=t.length;e--;)if(t[e].getAttribute(&quot;cf-hash&quot;))return t[e]}();if(t&amp;&amp;t.previousSibling){var e,r,n,i,c=t.previousSibling,a=c.getAttribute(&quot;data-cfemail&quot;);if(a){for(e=&quot;&quot;,r=parseInt(a.substr(0,2),16),n=2;a.length-n;n+=2)i=parseInt(a.substr(n,2),16)^r,e+=String.fromCharCode(i);e=document.createTextNode(e),c.parentNode.replaceChild(e,c)}}}catch(u){}}();/* ]]&gt; */&lt;/script&gt;\nFormat settings, CABAC : Yes\nFormat settings, ReFrames : 5 frames\nCodec ID : avc1\nCodec ID/Info : Advanced Video Coding\nDuration : 1h 29mn\nBit rate : 3 750 Kbps\nMaximum bit rate : 17.0 Mbps\nWidth : 1 920 pixels\nHeight : 800 pixels\nDisplay aspect ratio : 2.40:1\nFrame rate mode : Constant\nFrame rate : 23.976 fps\nColor space : YUV\nChroma subsampling : 4:2:0\nBit depth : 8 bits\nScan type : Progressive\nBits/(Pixel*Frame) : 0.102\nStream size : 2.34 GiB (82%)\nTitle : Ouija (CinEx).h264\nWriting library : x264 core 142 r2431 ac76440\nEncoded date : UTC 2015-03-29 14:13:59\nTagged date : UTC 2015-03-29 14:14:14\n\nAudio #1\nID : 2\nFormat : AC-3\nFormat/Info : Audio Coding 3\nMode extension : CM (complete main)\nFormat settings, Endianness : Big\nCodec ID : ac-3\nDuration : 1h 29mn\nBit rate mode : Constant\nBit rate : 640 Kbps\nChannel(s) : 6 channels\nChannel positions : Front: L C R, Side: L R, LFE\nSampling rate : 48.0 KHz\nBit depth : 16 bits\nCompression mode : Lossy\nStream size : 410 MiB (14%)\nTitle : Ouija (CinEx)AC3.ac3\nEncoded date : UTC 2015-03-29 14:14:10\nTagged date : UTC 2015-03-29 14:14:14\n\nAudio #2\nID : 3\nFormat : AAC\nFormat/Info : Advanced Audio Codec\nFormat profile : LC\nCodec ID : 40\nDuration : 1h 29mn\nBit rate mode : Variable\nBit rate : 199 Kbps\nMaximum bit rate : 252 Kbps\nChannel(s) : 2 channels\nChannel positions : Front: L R\nSampling rate : 48.0 KHz\nCompression mode : Lossy\nStream size : 128 MiB (4%)\nTitle : Ouija (CinEx)AAC.m4a\nEncoded date : UTC 2015-03-29 14:14:13\nTagged date : UTC 2015-03-29 14:14:14\n\n\nm/ AM m/","torrent":{"xt":"urn:btih:5177cb90ed54aed50e467d808510e8c9ef5273ae","amp;dn":"Ouija+%5B2014%5D+%28No+Cinavia%29+1080p","amp;tr":["udp%3A%2F%2Ftracker.openbittorrent.com%3A80","udp%3A%2F%2Fopen.demonii.com%3A1337","udp%3A%2F%2Ftracker.coppersurfer.tk%3A6969","udp%3A%2F%2Fexodus.desync.com%3A6969"],"infoHash":"5177cb90ed54aed50e467d808510e8c9ef5273ae","infoHashBuffer":{"type":"Buffer","data":[81,119,203,144,237,84,174,213,14,70,125,128,133,16,232,201,239,82,115,174]},"announce":[],"urlList":[]}}